<svg width="80" height="80" fill="none" xmlns="http://www.w3.org/2000/svg"><path d="M71.666 13.333h-8.888V20A4.889 4.889 0 1153 20v-6.667H27.11V20a4.889 4.889 0 11-9.777 0v-6.667H8.444a3.954 3.954 0 00-4 4.022V67.09a3.956 3.956 0 003.89 4.022h63.332a3.955 3.955 0 003.89-4.022V17.356a3.957 3.957 0 00-3.89-4.023zM22.222 57.778h-4.445v-4.445h4.445v4.445zm0-11.111h-4.445v-4.445h4.445v4.445zm0-11.111h-4.445V31.11h4.445v4.445zm13.333 22.222h-4.444v-4.445h4.444v4.445zm0-11.111h-4.444v-4.445h4.444v4.445zm0-11.111h-4.444V31.11h4.444v4.445zM48.89 57.778h-4.445v-4.445h4.445v4.445zm0-11.111h-4.445v-4.445h4.445v4.445zm0-11.111h-4.445V31.11h4.445v4.445zm13.333 22.222h-4.444v-4.445h4.444v4.445zm0-11.111h-4.444v-4.445h4.444v4.445zm0-11.111h-4.444V31.11h4.444v4.445z" fill="#131316" fill-opacity=".05"/><path d="M22.222 22.222A2.223 2.223 0 0024.444 20V6.667a2.222 2.222 0 10-4.444 0V20a2.222 2.222 0 002.222 2.222zm35.556 0A2.222 2.222 0 0060 20V6.667a2.222 2.222 0 10-4.444 0V20a2.223 2.223 0 002.222 2.222z" fill="#131316" fill-opacity=".05"/></svg>