<svg width="79" height="80" fill="none" xmlns="http://www.w3.org/2000/svg"><path d="M1.474 1.62A2.431 2.431 0 012.732.318 2.47 2.47 0 014.55.238c.595.205 1.086.63 1.372 1.184a2.4 2.4 0 01.164 1.794c-3.755 10.68 3.699 18.656 9.382 22.928l2.296-3.256c.772-1.092 2.498-2 3.84-2.016l12.887.056a8.805 8.805 0 014.434 1.352l37.973 26.348a4.036 4.036 0 011.672 2.604 4.007 4.007 0 01-.673 3.012L60.64 78.676c-1.293 1.82-3.359 1.6-5.202.328L17.465 52.652c-1.091-.764-2.353-2.412-2.797-3.672L10.633 36.4c-.444-1.256-.173-3.172.599-4.264l1.398-1.984C5 24.364-2.924 14.136 1.474 1.62zm17.668 37.432a6.568 6.568 0 007.223.153 6.471 6.471 0 001.832-1.737 6.403 6.403 0 001.08-4.819 6.449 6.449 0 00-2.677-4.165 6.543 6.543 0 00-3.786-1.163 6.542 6.542 0 00-3.765 1.231c1.1.656 1.856 1.04 1.997 1.1a2.44 2.44 0 011.15 1.128c.242.494.308 1.055.186 1.591a2.421 2.421 0 01-.857 1.36 2.467 2.467 0 01-1.526.533c-.347 0-.703-.08-1.038-.236a30.453 30.453 0 01-2.503-1.32 6.398 6.398 0 00.418 3.555 6.473 6.473 0 002.266 2.789z" fill="#131316" fill-opacity=".05"/></svg>