<svg width="85" height="24" fill="none" xmlns="http://www.w3.org/2000/svg"><path d="M15.734 9.174c-.897.747-1.345 1.786-1.223 2.834l-.021-.018c.126 1.233-.412 2.45-1.47 3.325-1.057.875-2.528 1.32-4.018 1.216l.02.017c-1.804-.139-3.52.674-4.29 2.031-.77 1.357.487 1.907 1.77 2.967 1.281 1.06 2.313 2.403 3.953 1.764 1.64-.638 2.62-2.059 2.45-3.552l.023.017c-.126-1.233.412-2.45 1.47-3.324 1.057-.876 2.527-1.32 4.018-1.216l-.022-.018c1.983.148 3.829-.853 4.457-2.416.628-1.564-.84-2.231-2.536-3.096-1.696-.864-3.172-1.698-4.578-.53h-.003zm-7.821 5.137c.897-.746 1.345-1.785 1.221-2.833l.023.017c-.126-1.233.412-2.45 1.47-3.325s2.529-1.32 4.02-1.215l-.022-.018c1.804.14 3.52-.671 4.291-2.028.771-1.357-1.266-2.037-2.548-3.097C15.087.752 14.837-.46 13.197.177c-1.64.638-2.62 2.058-2.452 3.55l-.02-.017c.125 1.233-.412 2.45-1.47 3.325s-2.528 1.32-4.019 1.216l.021.017c-1.983-.147-3.39.203-4.018 1.767-.628 1.563 0 1.973 1.645 2.96 1.695.864 3.626 2.484 5.03 1.316h-.001zm25.597 6.313c2.805 0 4.8-1.278 4.8-3.79V6.92h-2.704v1.649h-.103c-.364-.8-1.163-1.777-2.806-1.777-2.154 0-3.976 1.674-3.976 5.018 0 3.266 1.771 4.787 3.983 4.787 1.566 0 2.441-.786 2.8-1.598h.114v1.796c0 1.349-.863 1.873-2.045 1.873-1.202 0-1.809-.524-2.033-1.118l-2.518.338c.326 1.547 1.84 2.736 4.487 2.736zm.057-6.072c-1.336 0-2.065-1.061-2.065-2.755 0-1.669.716-2.838 2.065-2.838 1.323 0 2.064 1.118 2.064 2.838 0 1.732-.754 2.755-2.064 2.755zm8.59 5.868c2.027 0 3.1-1.036 3.657-2.621L49.63 6.932l-2.883-.012-2.052 7.21h-.102L42.56 6.92h-2.863l3.522 10.099-.16.416c-.358.92-1.042.965-2 .67l-.615 2.033c.39.166 1.023.282 1.713.282zm8.866-3.682h2.723v-5.894c0-1.086.69-1.809 1.598-1.809.895 0 1.496.614 1.496 1.58v6.123h2.64v-5.996c0-1.016.582-1.707 1.572-1.707.87 0 1.522.544 1.522 1.637v6.066h2.716v-6.603c0-2.129-1.265-3.343-3.093-3.343-1.439 0-2.557.735-2.96 1.86h-.102c-.313-1.138-1.317-1.86-2.666-1.86-1.323 0-2.326.703-2.736 1.86h-.114V6.92h-2.596v9.818z" fill="#fff"/><path d="M67.724 16.738h1.815v-3.93c0-.724.46-1.205 1.065-1.205.597 0 .998.409.998 1.052v4.083h1.76V12.74c0-.678.387-1.138 1.048-1.138.58 0 1.014.362 1.014 1.09v4.045h1.811v-4.402c0-1.42-.844-2.229-2.063-2.229-.958 0-1.704.49-1.972 1.24h-.069c-.209-.758-.877-1.24-1.777-1.24-.882 0-1.55.469-1.823 1.24h-.077v-1.155h-1.73v6.546zm13.928.128c1.62 0 2.71-.789 2.966-2.003l-1.68-.111c-.182.498-.651.758-1.256.758-.908 0-1.483-.6-1.483-1.576v-.004h4.457v-.5c0-2.223-1.346-3.323-3.077-3.323-1.926 0-3.174 1.368-3.174 3.388 0 2.075 1.231 3.37 3.247 3.37zm-1.453-4.061c.038-.746.605-1.343 1.41-1.343.789 0 1.334.563 1.338 1.343H80.2z" fill="#4AE290"/></svg>