<svg width="100" height="70" fill="none" xmlns="http://www.w3.org/2000/svg"><path d="M30 35c9.672 0 17.5-7.828 17.5-17.5S39.672 0 30 0 12.5 7.828 12.5 17.5 20.328 35 30 35zm12 5h-1.297c-3.25 1.563-6.86 2.5-10.703 2.5-3.844 0-7.438-.938-10.703-2.5H18C8.062 40 0 48.063 0 58v4.5C0 66.64 3.36 70 7.5 70h45c4.14 0 7.5-3.36 7.5-7.5V58c0-9.938-8.063-18-18-18zm33-5c8.281 0 15-6.719 15-15 0-8.281-6.719-15-15-15-8.281 0-15 6.719-15 15 0 8.281 6.719 15 15 15zm7.5 5h-.594c-2.172.75-4.469 1.25-6.906 1.25-2.438 0-4.734-.5-6.906-1.25H67.5c-3.188 0-6.125.922-8.703 2.406C62.609 46.516 65 51.97 65 58v6c0 .344-.078.672-.094 1H92.5c4.14 0 7.5-3.36 7.5-7.5 0-9.672-7.828-17.5-17.5-17.5z" fill="#131316" fill-opacity=".05"/></svg>