<svg width="54" height="80" fill="none" xmlns="http://www.w3.org/2000/svg"><path d="M24.28.092C8.804 1.025.666 9.83 0 25.705h15.608c.134-5.47 3.335-9.605 8.938-10.272 5.603-.534 10.94.8 12.54 4.536 1.734 4.135-2.134 8.938-4.002 10.939-3.469 3.735-9.071 6.536-12.006 10.538-2.802 4.003-3.335 9.205-3.602 15.609h13.74c.134-4.136.4-8.005 2.268-10.54 3.069-4.135 7.604-6.002 11.34-9.337 3.601-3.069 7.47-6.804 8.004-12.674C55.095 7.295 40.955-.976 24.279.092zM24.68 80c4.788 0 8.67-3.823 8.67-8.538s-3.882-8.538-8.67-8.538c-4.79 0-8.672 3.823-8.672 8.538S19.891 80 24.68 80z" fill="#131316" fill-opacity=".05"/></svg>