<svg width="90" height="80" fill="none" xmlns="http://www.w3.org/2000/svg"><path d="M0 9.655v44.14c0 5.33 4.383 9.654 9.793 9.654h44.12L69.417 80V63.447H79.74c5.407 0 9.793-4.324 9.793-9.654V9.655C89.532 4.323 85.147 0 79.74 0H9.793C4.383 0 0 4.323 0 9.655zm62.365 22.068c0-3.427 2.817-6.206 6.295-6.206 3.479 0 6.296 2.78 6.296 6.206 0 3.43-2.817 6.207-6.296 6.207-3.478 0-6.295-2.776-6.295-6.207zm-23.895 0c0-3.427 2.82-6.206 6.296-6.206 3.475 0 6.295 2.78 6.295 6.206 0 3.43-2.82 6.207-6.295 6.207s-6.296-2.776-6.296-6.207zm-23.893 0c0-3.427 2.82-6.206 6.296-6.206 3.478 0 6.295 2.78 6.295 6.206 0 3.43-2.817 6.207-6.295 6.207-3.477.002-6.296-2.776-6.296-6.207z" fill="#131316" fill-opacity=".05"/></svg>