<svg width="22" height="22" viewBox="0 0 22 22" fill="none" xmlns="http://www.w3.org/2000/svg">
<path fill-rule="evenodd" clip-rule="evenodd" d="M10.9998 21.0833C5.43109 21.0833 0.916504 16.5687 0.916504 10.9999C0.916504 5.43117 5.43109 0.916586 10.9998 0.916586C16.5686 0.916586 21.0832 5.43117 21.0832 10.9999C21.0832 16.5687 16.5686 21.0833 10.9998 21.0833ZM7.98125 13.023C7.80837 13.19 7.57682 13.2824 7.33647 13.2803C7.09612 13.2782 6.86621 13.1818 6.69625 13.0118C6.5263 12.8419 6.42989 12.612 6.4278 12.3716C6.42571 12.1313 6.51811 11.8997 6.68509 11.7268L10.3518 8.06017C10.5237 7.88832 10.7568 7.79178 10.9998 7.79178C11.2429 7.79178 11.476 7.88832 11.6479 8.06017L15.3146 11.7268C15.4816 11.8997 15.574 12.1313 15.5719 12.3716C15.5698 12.612 15.4734 12.8419 15.3034 13.0118C15.1335 13.1818 14.9036 13.2782 14.6632 13.2803C14.4229 13.2824 14.1913 13.19 14.0184 13.023L10.9998 10.0044L7.98125 13.023Z" fill="#131316"/>
</svg>
