<svg width="40" height="40" viewBox="0 0 40 40" fill="none" xmlns="http://www.w3.org/2000/svg">
<path fill-rule="evenodd" clip-rule="evenodd" d="M19.9999 1.66663C30.1249 1.66663 38.3333 9.87496 38.3333 20C38.3333 30.125 30.1249 38.3333 19.9999 38.3333C9.87492 38.3333 1.66659 30.125 1.66659 20C1.66659 9.87496 9.87492 1.66663 19.9999 1.66663ZM23.6783 14.5116C23.9818 14.1973 24.1498 13.7763 24.146 13.3393C24.1422 12.9023 23.967 12.4843 23.658 12.1753C23.3489 11.8662 22.9309 11.691 22.4939 11.6872C22.0569 11.6834 21.6359 11.8514 21.3216 12.155L14.6549 18.8216C14.3425 19.1342 14.1669 19.558 14.1669 20C14.1669 20.4419 14.3425 20.8657 14.6549 21.1783L21.3216 27.845C21.6359 28.1486 22.0569 28.3165 22.4939 28.3127C22.9309 28.309 23.3489 28.1337 23.658 27.8247C23.967 27.5156 24.1422 27.0976 24.146 26.6606C24.1498 26.2236 23.9818 25.8026 23.6783 25.4883L18.1899 20L23.6783 14.5116Z" fill="#131316"/>
</svg>
