<svg width="40" height="40" viewBox="0 0 40 40" fill="none" xmlns="http://www.w3.org/2000/svg">
<path fill-rule="evenodd" clip-rule="evenodd" d="M20.0001 1.66663C9.87508 1.66663 1.66675 9.87496 1.66675 20C1.66675 30.125 9.87508 38.3333 20.0001 38.3333C30.1251 38.3333 38.3334 30.125 38.3334 20C38.3334 9.87496 30.1251 1.66663 20.0001 1.66663ZM16.3217 14.5116C16.0182 14.1973 15.8502 13.7763 15.854 13.3393C15.8578 12.9023 16.033 12.4843 16.342 12.1753C16.6511 11.8662 17.0691 11.691 17.5061 11.6872C17.9431 11.6834 18.3641 11.8514 18.6784 12.155L25.3451 18.8216C25.6575 19.1342 25.8331 19.558 25.8331 20C25.8331 20.4419 25.6575 20.8657 25.3451 21.1783L18.6784 27.845C18.3641 28.1486 17.9431 28.3165 17.5061 28.3127C17.0691 28.309 16.6511 28.1337 16.342 27.8247C16.033 27.5156 15.8578 27.0976 15.854 26.6606C15.8502 26.2236 16.0182 25.8026 16.3217 25.4883L21.8101 20L16.3217 14.5116Z" fill="#131316"/>
</svg>
