<svg width="20" height="20" viewBox="0 0 20 20" fill="none" xmlns="http://www.w3.org/2000/svg">
<path fill-rule="evenodd" clip-rule="evenodd" d="M9.99992 0.833252C4.93742 0.833252 0.833252 4.93742 0.833252 9.99992C0.833252 15.0624 4.93742 19.1666 9.99992 19.1666C15.0624 19.1666 19.1666 15.0624 19.1666 9.99992C19.1666 4.93742 15.0624 0.833252 9.99992 0.833252ZM13.9733 8.44992C14.0464 8.36629 14.1021 8.26887 14.1371 8.16339C14.172 8.05792 14.1855 7.94651 14.1768 7.83574C14.1681 7.72496 14.1373 7.61705 14.0862 7.51836C14.0352 7.41966 13.9649 7.33217 13.8795 7.26104C13.7942 7.1899 13.6955 7.13655 13.5892 7.10414C13.4829 7.07172 13.3712 7.06089 13.2607 7.07227C13.1501 7.08366 13.043 7.11704 12.9455 7.17045C12.8481 7.22385 12.7623 7.29621 12.6933 7.38325L9.10992 11.6824L7.25575 9.82742C7.09858 9.67562 6.88808 9.59162 6.66958 9.59352C6.45109 9.59542 6.24208 9.68306 6.08757 9.83757C5.93306 9.99208 5.84542 10.2011 5.84352 10.4196C5.84162 10.6381 5.92562 10.8486 6.07742 11.0058L8.57742 13.5058C8.6593 13.5876 8.75733 13.6515 8.86526 13.6933C8.9732 13.7351 9.08867 13.754 9.20431 13.7488C9.31995 13.7435 9.43323 13.7142 9.53693 13.6628C9.64062 13.6113 9.73246 13.5388 9.80658 13.4499L13.9733 8.44992Z" fill="#DEDEE3"/>
</svg>
