<svg width="80" height="80" viewBox="0 0 80 80" fill="none" xmlns="http://www.w3.org/2000/svg">
<path d="M71.6664 13.3333H62.7775V19.9999C62.7775 20.6419 62.6511 21.2777 62.4054 21.8708C62.1597 22.464 61.7996 23.0029 61.3456 23.4569C60.8916 23.9109 60.3527 24.271 59.7595 24.5167C59.1664 24.7624 58.5306 24.8888 57.8886 24.8888C57.2466 24.8888 56.6109 24.7624 56.0177 24.5167C55.4246 24.271 54.8856 23.9109 54.4317 23.4569C53.9777 23.0029 53.6176 22.464 53.3719 21.8708C53.1262 21.2777 52.9997 20.6419 52.9997 19.9999V13.3333H27.1108V19.9999C27.1108 21.2965 26.5958 22.5401 25.6789 23.4569C24.7621 24.3737 23.5186 24.8888 22.222 24.8888C20.9253 24.8888 19.6818 24.3737 18.765 23.4569C17.8481 22.5401 17.3331 21.2965 17.3331 19.9999V13.3333H8.44417C7.91534 13.3272 7.39066 13.4273 6.90118 13.6276C6.4117 13.8279 5.96736 14.1243 5.59443 14.4993C5.2215 14.8743 4.92755 15.3203 4.72998 15.8109C4.53241 16.3015 4.43523 16.8267 4.44417 17.3555V67.0888C4.43535 67.6083 4.52894 68.1244 4.71961 68.6077C4.91028 69.091 5.19429 69.532 5.55542 69.9055C5.91655 70.279 6.34773 70.5777 6.82432 70.7846C7.30092 70.9914 7.81359 71.1024 8.33306 71.111H71.6664C72.1859 71.1024 72.6985 70.9914 73.1751 70.7846C73.6517 70.5777 74.0829 70.279 74.444 69.9055C74.8052 69.532 75.0892 69.091 75.2799 68.6077C75.4705 68.1244 75.5641 67.6083 75.5553 67.0888V17.3555C75.5641 16.836 75.4705 16.3199 75.2799 15.8366C75.0892 15.3533 74.8052 14.9123 74.444 14.5388C74.0829 14.1653 73.6517 13.8666 73.1751 13.6597C72.6985 13.4529 72.1859 13.3419 71.6664 13.3333ZM22.222 57.7777H17.7775V53.3333H22.222V57.7777ZM22.222 46.6666H17.7775V42.2222H22.222V46.6666ZM22.222 35.5555H17.7775V31.111H22.222V35.5555ZM35.5553 57.7777H31.1108V53.3333H35.5553V57.7777ZM35.5553 46.6666H31.1108V42.2222H35.5553V46.6666ZM35.5553 35.5555H31.1108V31.111H35.5553V35.5555ZM48.8886 57.7777H44.4442V53.3333H48.8886V57.7777ZM48.8886 46.6666H44.4442V42.2222H48.8886V46.6666ZM48.8886 35.5555H44.4442V31.111H48.8886V35.5555ZM62.222 57.7777H57.7775V53.3333H62.222V57.7777ZM62.222 46.6666H57.7775V42.2222H62.222V46.6666ZM62.222 35.5555H57.7775V31.111H62.222V35.5555Z" fill="#131316" fill-opacity="0.05"/>
<path d="M22.2222 22.2222C22.8116 22.2222 23.3768 21.9881 23.7936 21.5714C24.2103 21.1546 24.4444 20.5894 24.4444 20V6.66668C24.4444 6.07731 24.2103 5.51208 23.7936 5.09533C23.3768 4.67858 22.8116 4.44446 22.2222 4.44446C21.6329 4.44446 21.0676 4.67858 20.6509 5.09533C20.2341 5.51208 20 6.07731 20 6.66668V20C20 20.5894 20.2341 21.1546 20.6509 21.5714C21.0676 21.9881 21.6329 22.2222 22.2222 22.2222Z" fill="#131316" fill-opacity="0.05"/>
<path d="M57.7779 22.2222C58.3673 22.2222 58.9325 21.9881 59.3492 21.5714C59.766 21.1546 60.0001 20.5894 60.0001 20V6.66668C60.0001 6.07731 59.766 5.51208 59.3492 5.09533C58.9325 4.67858 58.3673 4.44446 57.7779 4.44446C57.1885 4.44446 56.6233 4.67858 56.2065 5.09533C55.7898 5.51208 55.5557 6.07731 55.5557 6.66668V20C55.5557 20.5894 55.7898 21.1546 56.2065 21.5714C56.6233 21.9881 57.1885 22.2222 57.7779 22.2222Z" fill="#131316" fill-opacity="0.05"/>
</svg>
