<svg width="79" height="80" viewBox="0 0 79 80" fill="none" xmlns="http://www.w3.org/2000/svg">
<path d="M1.47369 1.61997C1.7082 1.04202 2.15886 0.575783 2.73192 0.318259C3.30498 0.0607338 3.9563 0.0317475 4.55041 0.23733C5.14451 0.442912 5.63565 0.867234 5.92165 1.42202C6.20764 1.97681 6.26647 2.61935 6.08591 3.21597C2.33064 13.896 9.78458 21.872 15.468 26.144L17.764 22.888C18.5361 21.796 20.2621 20.888 21.6041 20.872L34.4909 20.928C36.0651 20.975 37.5972 21.4422 38.9252 22.28L76.8982 48.628C77.7815 49.243 78.3824 50.1793 78.5696 51.2319C78.7567 52.2845 78.5147 53.3675 77.8966 54.244L60.6402 78.676C59.3467 80.496 57.2811 80.276 55.4379 79.004L17.4649 52.652C16.3735 51.888 15.1123 50.24 14.6676 48.98L10.6334 36.4C10.1888 35.144 10.4596 33.228 11.2317 32.136L12.6303 30.152C4.99854 24.364 -2.92429 14.136 1.47369 1.61997ZM19.1424 39.052C19.842 39.5365 20.6311 39.8799 21.4649 40.0626C22.2986 40.2452 23.1605 40.2635 24.0014 40.1164C24.8423 39.9693 25.6456 39.6597 26.3655 39.2053C27.0854 38.7509 27.7078 38.1605 28.1971 37.468C29.1877 36.0666 29.576 34.3335 29.2766 32.6492C28.9773 30.9648 28.0148 29.4668 26.6004 28.484C25.4916 27.7152 24.1677 27.3085 22.8139 27.3207C21.4601 27.3329 20.1439 27.7634 19.0494 28.552C20.1489 29.208 20.9048 29.592 21.0463 29.652C21.5474 29.8884 21.9525 30.2862 22.1951 30.7803C22.4378 31.2743 22.5037 31.8353 22.3821 32.3712C22.2604 32.9072 21.9584 33.3864 21.5255 33.7303C21.0926 34.0741 20.5545 34.2623 19.9994 34.264C19.6517 34.264 19.296 34.184 18.9605 34.028C18.1763 33.66 17.3355 33.224 16.4583 32.708C16.2566 33.9082 16.4014 35.1405 16.8763 36.2628C17.3511 37.3852 18.1367 38.352 19.1424 39.052Z" fill="#131316" fill-opacity="0.05"/>
</svg>
