<svg width="85" height="24" viewBox="0 0 85 24" fill="none" xmlns="http://www.w3.org/2000/svg">
<path d="M15.7339 9.17434C14.8368 9.92108 14.3885 10.9597 14.5109 12.0077L14.4899 11.9902C14.6157 13.2235 14.078 14.4399 13.0203 15.315C11.9626 16.1902 10.4923 16.635 9.00177 16.5309L9.02282 16.5483C7.2181 16.4093 5.50181 17.2215 4.73162 18.579C3.96144 19.9365 5.2189 20.4856 6.50113 21.5456C7.78336 22.6055 8.81502 23.9486 10.4551 23.3102C12.0951 22.6717 13.0752 21.251 12.9056 19.7579L12.9278 19.7753C12.802 18.5421 13.3397 17.3257 14.3974 16.4506C15.4551 15.5754 16.9254 15.1306 18.4159 15.2347L18.3937 15.2173C20.3772 15.3649 22.2228 14.3642 22.851 12.8007C23.4792 11.2372 22.0101 10.5697 20.3147 9.70539C18.6192 8.84109 17.1428 8.00701 15.7374 9.17434H15.7339Z" fill="white"/>
<path d="M7.91254 14.3112C8.80975 13.5646 9.25771 12.5258 9.13432 11.4779L9.15654 11.4953C9.03061 10.2617 9.56858 9.04495 10.6269 8.16974C11.6851 7.29453 13.156 6.84996 14.647 6.95467L14.6247 6.93725C16.429 7.0771 18.1455 6.26586 18.9164 4.90898C19.6873 3.55209 17.6498 2.87242 16.3684 1.81225C15.087 0.752071 14.8369 -0.460934 13.1969 0.176875C11.5569 0.814683 10.5764 2.23486 10.7454 3.72764L10.7244 3.71023C10.8502 4.94347 10.3126 6.15989 9.25482 7.03502C8.19709 7.91015 6.72687 8.355 5.23631 8.25089L5.25735 8.26831C3.27398 8.12114 1.86718 8.47105 1.23932 10.0346C0.611462 11.5981 1.23933 12.0079 2.88379 12.9946C4.57926 13.8587 6.50957 15.4785 7.91488 14.3112H7.91254Z" fill="white"/>
<path d="M33.5091 20.6241C36.3152 20.6241 38.3095 19.3457 38.3095 16.8336V6.91958H35.6057V8.56873H35.5034C35.139 7.76972 34.34 6.79174 32.6973 6.79174C30.5432 6.79174 28.7214 8.46646 28.7214 11.8095C28.7214 15.0758 30.492 16.5971 32.7037 16.5971C34.2697 16.5971 35.1454 15.8109 35.5034 14.9991H35.6185V16.7953C35.6185 18.144 34.7555 18.6682 33.573 18.6682C32.3713 18.6682 31.764 18.144 31.5403 17.5496L29.0219 17.8883C29.3479 19.4352 30.8628 20.6241 33.5091 20.6241ZM33.5666 14.5517C32.2307 14.5517 31.502 13.4906 31.502 11.7967C31.502 10.1284 32.2179 8.95864 33.5666 8.95864C34.8898 8.95864 35.6312 10.0773 35.6312 11.7967C35.6312 13.529 34.877 14.5517 33.5666 14.5517Z" fill="white"/>
<path d="M42.1575 20.4196C44.1838 20.4196 45.2577 19.3841 45.8138 17.7988L49.6298 6.93237L46.747 6.91958L44.6952 14.1298H44.5929L42.5602 6.91958H39.6966L43.2186 17.019L43.0588 17.4345C42.7008 18.355 42.0169 18.3997 41.0581 18.1057L40.4444 20.1383C40.8344 20.3045 41.4672 20.4196 42.1575 20.4196Z" fill="white"/>
<path d="M51.0233 16.7378H53.7463V10.8443C53.7463 9.75765 54.4366 9.03535 55.3443 9.03535C56.2392 9.03535 56.84 9.64898 56.84 10.6142V16.7378H59.48V10.742C59.48 9.72569 60.0616 9.03535 61.0524 9.03535C61.9217 9.03535 62.5737 9.57867 62.5737 10.6717V16.7378H65.2903V10.1348C65.2903 8.00623 64.0247 6.79174 62.1966 6.79174C60.7584 6.79174 59.6398 7.52683 59.2371 8.65183H59.1348C58.8216 7.51404 57.818 6.79174 56.4693 6.79174C55.1462 6.79174 54.1426 7.49487 53.7335 8.65183H53.6185V6.91958H51.0233V16.7378Z" fill="white"/>
<path d="M67.7236 16.7378H69.539V12.8088C69.539 12.0844 69.9992 11.6028 70.6043 11.6028C71.2009 11.6028 71.6015 12.0119 71.6015 12.6554V16.7378H73.3614V12.7406C73.3614 12.063 73.7492 11.6028 74.4097 11.6028C74.9893 11.6028 75.4239 11.965 75.4239 12.6937V16.7378H77.235V12.3358C77.235 10.9167 76.3912 10.1071 75.1725 10.1071C74.2137 10.1071 73.468 10.5971 73.1995 11.3471H73.1313C72.9225 10.5886 72.2535 10.1071 71.3543 10.1071C70.4722 10.1071 69.8032 10.5758 69.5305 11.3471H69.4537V10.1923H67.7236V16.7378Z" fill="#4AE290"/>
<path d="M81.6519 16.8656C83.2712 16.8656 84.3621 16.0772 84.6178 14.8628L82.9388 14.752C82.7556 15.2505 82.2868 15.5105 81.6817 15.5105C80.7741 15.5105 80.1988 14.9096 80.1988 13.9338V13.9295H84.6562V13.4309C84.6562 11.2065 83.3096 10.1071 81.5795 10.1071C79.6533 10.1071 78.4047 11.475 78.4047 13.4949C78.4047 15.5701 79.6363 16.8656 81.6519 16.8656ZM80.1988 12.8045C80.2371 12.0588 80.8039 11.4622 81.6093 11.4622C82.3976 11.4622 82.9431 12.0247 82.9474 12.8045H80.1988Z" fill="#4AE290"/>
</svg>
