<svg width="100" height="70" viewBox="0 0 100 70" fill="none" xmlns="http://www.w3.org/2000/svg">
<path d="M30 35C39.6719 35 47.5 27.1719 47.5 17.5C47.5 7.82812 39.6719 0 30 0C20.3281 0 12.5 7.82812 12.5 17.5C12.5 27.1719 20.3281 35 30 35ZM42 40H40.7031C37.4531 41.5625 33.8438 42.5 30 42.5C26.1562 42.5 22.5625 41.5625 19.2969 40H18C8.0625 40 0 48.0625 0 58V62.5C0 66.6406 3.35938 70 7.5 70H52.5C56.6406 70 60 66.6406 60 62.5V58C60 48.0625 51.9375 40 42 40ZM75 35C83.2812 35 90 28.2812 90 20C90 11.7188 83.2812 5 75 5C66.7188 5 60 11.7188 60 20C60 28.2812 66.7188 35 75 35ZM82.5 40H81.9062C79.7344 40.75 77.4375 41.25 75 41.25C72.5625 41.25 70.2656 40.75 68.0938 40H67.5C64.3125 40 61.375 40.9219 58.7969 42.4062C62.6094 46.5156 65 51.9688 65 58V64C65 64.3438 64.9219 64.6719 64.9062 65H92.5C96.6406 65 100 61.6406 100 57.5C100 47.8281 92.1719 40 82.5 40Z" fill="#131316" fill-opacity="0.05"/>
</svg>
